<svg width="800" height="600" viewBox="0 0 800 600" xmlns="http://www.w3.org/2000/svg">
  <defs>
    <linearGradient id="gradient4" x1="0%" y1="0%" x2="100%" y2="100%">
      <stop offset="0%" style="stop-color:#667eea;stop-opacity:1" />
      <stop offset="100%" style="stop-color:#764ba2;stop-opacity:1" />
    </linearGradient>
  </defs>
  
  <!-- Background -->
  <rect width="800" height="600" fill="url(#gradient4)"/>
  
  <!-- Books stack -->
  <rect x="250" y="380" width="300" height="40" rx="5" fill="#e74c3c"/>
  <rect x="260" y="340" width="280" height="40" rx="5" fill="#3498db"/>
  <rect x="270" y="300" width="260" height="40" rx="5" fill="#f39c12"/>
  <rect x="280" y="260" width="240" height="40" rx="5" fill="#27ae60"/>
  <rect x="290" y="220" width="220" height="40" rx="5" fill="#9b59b6"/>
  
  <!-- Open book -->
  <path d="M 200 450 Q 400 420 600 450 L 600 500 Q 400 470 200 500 Z" fill="#ffffff" stroke="#ddd" stroke-width="2"/>
  <line x1="400" y1="435" x2="400" y2="485" stroke="#ddd" stroke-width="2"/>
  
  <!-- Text on open book -->
  <line x1="220" y1="455" x2="380" y2="455" stroke="#333" stroke-width="1"/>
  <line x1="220" y1="465" x2="370" y2="465" stroke="#333" stroke-width="1"/>
  <line x1="220" y1="475" x2="375" y2="475" stroke="#333" stroke-width="1"/>
  <line x1="220" y1="485" x2="360" y2="485" stroke="#333" stroke-width="1"/>
  
  <line x1="420" y1="455" x2="580" y2="455" stroke="#333" stroke-width="1"/>
  <line x1="420" y1="465" x2="570" y2="465" stroke="#333" stroke-width="1"/>
  <line x1="420" y1="475" x2="575" y2="475" stroke="#333" stroke-width="1"/>
  <line x1="420" y1="485" x2="560" y2="485" stroke="#333" stroke-width="1"/>
  
  <!-- Graduation cap -->
  <rect x="350" y="150" width="100" height="8" rx="4" fill="#2c3e50"/>
  <rect x="370" y="140" width="60" height="20" rx="10" fill="#2c3e50"/>
  <polygon points="395,120 415,130 415,140 395,130 375,140 375,130" fill="#2c3e50"/>
  <circle cx="415" cy="135" r="3" fill="#f1c40f"/>
  
  <!-- Pencils -->
  <rect x="180" y="200" width="8" height="80" fill="#f1c40f" transform="rotate(15 184 240)"/>
  <rect x="180" y="200" width="8" height="15" fill="#ff6b6b" transform="rotate(15 184 240)"/>
  <polygon points="184,195 188,195 186,190" fill="#2c3e50" transform="rotate(15 184 240)"/>
  
  <rect x="610" y="220" width="8" height="80" fill="#3498db" transform="rotate(-20 614 260)"/>
  <rect x="610" y="220" width="8" height="15" fill="#e74c3c" transform="rotate(-20 614 260)"/>
  <polygon points="614,215 618,215 616,210" fill="#2c3e50" transform="rotate(-20 614 260)"/>
  
  <!-- Calculator -->
  <rect x="150" y="350" width="80" height="100" rx="8" fill="#34495e"/>
  <rect x="160" y="360" width="60" height="20" rx="4" fill="#2c3e50"/>
  <text x="190" y="375" text-anchor="middle" font-family="monospace" font-size="12" fill="#00ff00">123.45</text>
  
  <!-- Calculator buttons -->
  <circle cx="170" cy="395" r="6" fill="#7f8c8d"/>
  <circle cx="190" cy="395" r="6" fill="#7f8c8d"/>
  <circle cx="210" cy="395" r="6" fill="#7f8c8d"/>
  <circle cx="170" cy="415" r="6" fill="#7f8c8d"/>
  <circle cx="190" cy="415" r="6" fill="#7f8c8d"/>
  <circle cx="210" cy="415" r="6" fill="#7f8c8d"/>
  <circle cx="170" cy="435" r="6" fill="#7f8c8d"/>
  <circle cx="190" cy="435" r="6" fill="#7f8c8d"/>
  <circle cx="210" cy="435" r="6" fill="#e74c3c"/>
  
  <!-- Title -->
  <text x="400" y="550" text-anchor="middle" font-family="Arial, sans-serif" font-size="28" font-weight="bold" fill="#ffffff">Ders Notları</text>
</svg>