<svg width="800" height="600" viewBox="0 0 800 600" xmlns="http://www.w3.org/2000/svg">
  <defs>
    <linearGradient id="gradient2" x1="0%" y1="0%" x2="100%" y2="100%">
      <stop offset="0%" style="stop-color:#4ecdc4;stop-opacity:1" />
      <stop offset="100%" style="stop-color:#44a08d;stop-opacity:1" />
    </linearGradient>
  </defs>
  
  <!-- Background -->
  <rect width="800" height="600" fill="url(#gradient2)"/>
  
  <!-- Project board -->
  <rect x="150" y="80" width="500" height="440" rx="15" fill="#ffffff" stroke="#ddd" stroke-width="2"/>
  
  <!-- Header -->
  <rect x="150" y="80" width="500" height="60" rx="15" fill="#2c3e50"/>
  <rect x="150" y="120" width="500" height="20" fill="#2c3e50"/>
  
  <!-- Title -->
  <text x="400" y="115" text-anchor="middle" font-family="Arial, sans-serif" font-size="20" font-weight="bold" fill="#ffffff">PROJE YÖNETİMİ</text>
  
  <!-- Columns -->
  <rect x="170" y="160" width="140" height="300" rx="8" fill="#f8f9fa" stroke="#e9ecef" stroke-width="1"/>
  <rect x="330" y="160" width="140" height="300" rx="8" fill="#f8f9fa" stroke="#e9ecef" stroke-width="1"/>
  <rect x="490" y="160" width="140" height="300" rx="8" fill="#f8f9fa" stroke="#e9ecef" stroke-width="1"/>
  
  <!-- Column headers -->
  <text x="240" y="185" text-anchor="middle" font-family="Arial, sans-serif" font-size="14" font-weight="bold" fill="#495057">YAPILACAK</text>
  <text x="400" y="185" text-anchor="middle" font-family="Arial, sans-serif" font-size="14" font-weight="bold" fill="#495057">DEVAM EDEN</text>
  <text x="560" y="185" text-anchor="middle" font-family="Arial, sans-serif" font-size="14" font-weight="bold" fill="#495057">TAMAMLANAN</text>
  
  <!-- Task cards -->
  <rect x="180" y="200" width="120" height="40" rx="4" fill="#fff3cd" stroke="#ffeaa7" stroke-width="1"/>
  <rect x="180" y="250" width="120" height="40" rx="4" fill="#d1ecf1" stroke="#bee5eb" stroke-width="1"/>
  <rect x="180" y="300" width="120" height="40" rx="4" fill="#f8d7da" stroke="#f5c6cb" stroke-width="1"/>
  
  <rect x="340" y="200" width="120" height="40" rx="4" fill="#d4edda" stroke="#c3e6cb" stroke-width="1"/>
  <rect x="340" y="250" width="120" height="40" rx="4" fill="#cce5ff" stroke="#b3d7ff" stroke-width="1"/>
  
  <rect x="500" y="200" width="120" height="40" rx="4" fill="#d1f2eb" stroke="#c1e6d8" stroke-width="1"/>
  <rect x="500" y="250" width="120" height="40" rx="4" fill="#e2e3e5" stroke="#d1d3d4" stroke-width="1"/>
  <rect x="500" y="300" width="120" height="40" rx="4" fill="#f3e5f5" stroke="#e1bee7" stroke-width="1"/>
  
  <!-- Gear icon -->
  <circle cx="400" cy="500" r="25" fill="none" stroke="#666" stroke-width="3"/>
  <circle cx="400" cy="500" r="15" fill="none" stroke="#666" stroke-width="2"/>
  <polygon points="400,475 410,485 390,485" fill="#666"/>
  <polygon points="400,525 390,515 410,515" fill="#666"/>
  <polygon points="375,500 385,490 385,510" fill="#666"/>
  <polygon points="425,500 415,510 415,490" fill="#666"/>
  
  <!-- Title -->
  <text x="400" y="570" text-anchor="middle" font-family="Arial, sans-serif" font-size="28" font-weight="bold" fill="#ffffff">Proje Notları</text>
</svg>