<svg width="800" height="600" viewBox="0 0 800 600" xmlns="http://www.w3.org/2000/svg">
  <defs>
    <linearGradient id="gradient7" x1="0%" y1="0%" x2="100%" y2="100%">
      <stop offset="0%" style="stop-color:#ff7e5f;stop-opacity:1" />
      <stop offset="100%" style="stop-color:#feb47b;stop-opacity:1" />
    </linearGradient>
  </defs>
  
  <!-- Background -->
  <rect width="800" height="600" fill="url(#gradient7)"/>
  
  <!-- Cookbook -->
  <rect x="200" y="200" width="200" height="280" rx="10" fill="#8b4513"/>
  <rect x="205" y="205" width="190" height="270" rx="8" fill="#daa520"/>
  <rect x="210" y="210" width="180" height="260" rx="6" fill="#fff8dc"/>
  
  <!-- Cookbook title -->
  <text x="300" y="240" text-anchor="middle" font-family="serif" font-size="18" font-weight="bold" fill="#8b4513">TARİF</text>
  <text x="300" y="260" text-anchor="middle" font-family="serif" font-size="18" font-weight="bold" fill="#8b4513">KİTABI</text>
  
  <!-- Recipe on page -->
  <line x1="230" y1="290" x2="370" y2="290" stroke="#8b4513" stroke-width="2"/>
  <line x1="230" y1="310" x2="350" y2="310" stroke="#333" stroke-width="1"/>
  <line x1="230" y1="325" x2="360" y2="325" stroke="#333" stroke-width="1"/>
  <line x1="230" y1="340" x2="340" y2="340" stroke="#333" stroke-width="1"/>
  <line x1="230" y1="355" x2="355" y2="355" stroke="#333" stroke-width="1"/>
  
  <!-- Ingredients list -->
  <circle cx="235" cy="380" r="2" fill="#333"/>
  <line x1="245" y1="380" x2="320" y2="380" stroke="#333" stroke-width="1"/>
  <circle cx="235" cy="395" r="2" fill="#333"/>
  <line x1="245" y1="395" x2="310" y2="395" stroke="#333" stroke-width="1"/>
  <circle cx="235" cy="410" r="2" fill="#333"/>
  <line x1="245" y1="410" x2="330" y2="410" stroke="#333" stroke-width="1"/>
  <circle cx="235" cy="425" r="2" fill="#333"/>
  <line x1="245" y1="425" x2="315" y2="425" stroke="#333" stroke-width="1"/>
  
  <!-- Cooking pot -->
  <ellipse cx="500" cy="400" rx="80" ry="20" fill="#2c3e50"/>
  <rect x="420" y="320" width="160" height="80" fill="#34495e"/>
  <ellipse cx="500" cy="320" rx="80" ry="20" fill="#95a5a6"/>
  
  <!-- Pot lid -->
  <ellipse cx="480" cy="300" rx="60" ry="15" fill="#7f8c8d"/>
  <circle cx="480" cy="300" r="8" fill="#2c3e50"/>
  
  <!-- Steam -->
  <path d="M 460 290 Q 465 280 470 290 Q 475 280 480 290" stroke="#ecf0f1" stroke-width="3" fill="none" opacity="0.7"/>
  <path d="M 490 285 Q 495 275 500 285 Q 505 275 510 285" stroke="#ecf0f1" stroke-width="3" fill="none" opacity="0.7"/>
  <path d="M 520 290 Q 525 280 530 290 Q 535 280 540 290" stroke="#ecf0f1" stroke-width="3" fill="none" opacity="0.7"/>
  
  <!-- Vegetables -->
  <circle cx="550" cy="250" r="25" fill="#e74c3c"/> <!-- Tomato -->
  <path d="M 540 235 Q 545 225 550 235 Q 555 225 560 235" stroke="#27ae60" stroke-width="2" fill="none"/> <!-- Tomato stem -->
  
  <ellipse cx="600" cy="280" rx="15" ry="25" fill="#f39c12"/> <!-- Carrot -->
  <path d="M 590 255 Q 595 245 600 255 Q 605 245 610 255" stroke="#27ae60" stroke-width="2" fill="none"/> <!-- Carrot top -->
  
  <circle cx="650" cy="260" r="20" fill="#9b59b6"/> <!-- Onion -->
  <path d="M 640 245 Q 650 240 660 245" stroke="#8e44ad" stroke-width="1" fill="none"/> <!-- Onion layer -->
  
  <!-- Chef's hat -->
  <ellipse cx="300" cy="120" rx="50" ry="30" fill="#ffffff"/>
  <rect x="280" y="140" width="40" height="15" fill="#ffffff"/>
  <rect x="275" y="155" width="50" height="8" rx="4" fill="#ecf0f1"/>
  
  <!-- Spoon -->
  <ellipse cx="120" cy="350" rx="12" ry="8" fill="#95a5a6"/>
  <rect x="115" y="358" width="10" height="80" rx="5" fill="#7f8c8d"/>
  
  <!-- Fork -->
  <rect x="680" y="200" width="6" height="80" rx="3" fill="#7f8c8d"/>
  <rect x="675" y="195" width="4" height="15" rx="2" fill="#7f8c8d"/>
  <rect x="683" y="195" width="4" height="15" rx="2" fill="#7f8c8d"/>
  <rect x="691" y="195" width="4" height="15" rx="2" fill="#7f8c8d"/>
  
  <!-- Measuring cup -->
  <rect x="650" y="350" width="40" height="50" rx="5" fill="#ffffff" stroke="#ddd" stroke-width="2"/>
  <rect x="655" y="355" width="30" height="30" fill="#87ceeb"/>
  <rect x="695" y="365" width="15" height="8" rx="4" fill="#95a5a6"/>
  <line x1="660" y1="370" x2="680" y2="370" stroke="#bdc3c7" stroke-width="1"/>
  <line x1="660" y1="380" x2="680" y2="380" stroke="#bdc3c7" stroke-width="1"/>
  
  <!-- Title -->
  <text x="400" y="550" text-anchor="middle" font-family="Arial, sans-serif" font-size="28" font-weight="bold" fill="#ffffff">Tarif Notları</text>
</svg>