<svg width="800" height="600" viewBox="0 0 800 600" xmlns="http://www.w3.org/2000/svg">
  <defs>
    <linearGradient id="gradient6" x1="0%" y1="0%" x2="100%" y2="100%">
      <stop offset="0%" style="stop-color:#56ab2f;stop-opacity:1" />
      <stop offset="100%" style="stop-color:#a8e6cf;stop-opacity:1" />
    </linearGradient>
  </defs>
  
  <!-- Background -->
  <rect width="800" height="600" fill="url(#gradient6)"/>
  
  <!-- Suitcase -->
  <rect x="200" y="350" width="180" height="120" rx="15" fill="#8b4513"/>
  <rect x="205" y="355" width="170" height="110" rx="10" fill="#a0522d"/>
  
  <!-- Suitcase handle -->
  <rect x="270" y="330" width="40" height="15" rx="7" fill="#654321"/>
  <rect x="275" y="325" width="30" height="25" rx="12" fill="transparent" stroke="#654321" stroke-width="4"/>
  
  <!-- Suitcase latches -->
  <circle cx="220" cy="390" r="6" fill="#2c3e50"/>
  <circle cx="360" cy="390" r="6" fill="#2c3e50"/>
  
  <!-- Suitcase corners -->
  <rect x="195" y="345" width="15" height="15" fill="#654321"/>
  <rect x="375" y="345" width="15" height="15" fill="#654321"/>
  <rect x="195" y="460" width="15" height="15" fill="#654321"/>
  <rect x="375" y="460" width="15" height="15" fill="#654321"/>
  
  <!-- Travel stickers on suitcase -->
  <circle cx="230" cy="380" r="12" fill="#e74c3c"/>
  <text x="230" y="385" text-anchor="middle" font-size="8" font-weight="bold" fill="#ffffff">NYC</text>
  
  <rect x="320" y="365" width="24" height="16" rx="3" fill="#3498db"/>
  <text x="332" y="375" text-anchor="middle" font-size="6" font-weight="bold" fill="#ffffff">PARIS</text>
  
  <polygon points="250,420 270,420 260,435" fill="#f39c12"/>
  <text x="260" y="430" text-anchor="middle" font-size="6" font-weight="bold" fill="#ffffff">TOKYO</text>
  
  <!-- Map -->
  <rect x="420" y="200" width="300" height="200" rx="10" fill="#ffffff" stroke="#ddd" stroke-width="2"/>
  
  <!-- Map content -->
  <path d="M 440 220 Q 480 250 520 230 Q 560 210 600 240 Q 640 270 680 250" stroke="#3498db" stroke-width="3" fill="none"/>
  <circle cx="480" cy="250" r="6" fill="#e74c3c"/>
  <circle cx="560" cy="210" r="6" fill="#e74c3c"/>
  <circle cx="640" cy="270" r="6" fill="#e74c3c"/>
  
  <!-- Map grid -->
  <line x1="440" y1="220" x2="700" y2="220" stroke="#ecf0f1" stroke-width="1"/>
  <line x1="440" y1="260" x2="700" y2="260" stroke="#ecf0f1" stroke-width="1"/>
  <line x1="440" y1="300" x2="700" y2="300" stroke="#ecf0f1" stroke-width="1"/>
  <line x1="440" y1="340" x2="700" y2="340" stroke="#ecf0f1" stroke-width="1"/>
  <line x1="480" y1="210" x2="480" y2="380" stroke="#ecf0f1" stroke-width="1"/>
  <line x1="560" y1="210" x2="560" y2="380" stroke="#ecf0f1" stroke-width="1"/>
  <line x1="640" y1="210" x2="640" y2="380" stroke="#ecf0f1" stroke-width="1"/>
  
  <!-- Compass -->
  <circle cx="150" cy="250" r="40" fill="#2c3e50"/>
  <circle cx="150" cy="250" r="35" fill="#ecf0f1"/>
  <polygon points="150,220 160,240 150,250 140,240" fill="#e74c3c"/>
  <polygon points="150,280 140,260 150,250 160,260" fill="#ffffff" stroke="#2c3e50" stroke-width="1"/>
  <text x="150" y="210" text-anchor="middle" font-size="12" font-weight="bold" fill="#2c3e50">N</text>
  
  <!-- Camera -->
  <rect x="450" y="420" width="80" height="50" rx="8" fill="#2c3e50"/>
  <circle cx="490" cy="445" r="18" fill="#34495e"/>
  <circle cx="490" cy="445" r="12" fill="#000000"/>
  <rect x="515" y="430" width="10" height="8" rx="2" fill="#e74c3c"/>
  <rect x="460" y="425" width="8" height="5" rx="2" fill="#95a5a6"/>
  
  <!-- Photo -->
  <rect x="580" y="420" width="60" height="45" rx="3" fill="#ffffff" stroke="#ddd" stroke-width="1"/>
  <rect x="585" y="425" width="50" height="30" fill="#87ceeb"/>
  <circle cx="600" cy="435" r="8" fill="#f1c40f"/>
  <polygon points="590,450 610,440 620,450 605,455" fill="#27ae60"/>
  
  <!-- Notebook -->
  <rect x="100" y="400" width="120" height="80" rx="5" fill="#8b4513"/>
  <rect x="105" y="405" width="110" height="70" rx="3" fill="#daa520"/>
  <rect x="110" y="410" width="100" height="60" rx="2" fill="#ffffff"/>
  
  <!-- Writing in notebook -->
  <line x1="120" y1="425" x2="190" y2="425" stroke="#333" stroke-width="1"/>
  <line x1="120" y1="435" x2="180" y2="435" stroke="#333" stroke-width="1"/>
  <line x1="120" y1="445" x2="185" y2="445" stroke="#333" stroke-width="1"/>
  <line x1="120" y1="455" x2="175" y2="455" stroke="#333" stroke-width="1"/>
  
  <!-- Title -->
  <text x="400" y="550" text-anchor="middle" font-family="Arial, sans-serif" font-size="28" font-weight="bold" fill="#ffffff">Seyahat Notları</text>
</svg>